<?xml version="1.0" encoding="utf-8"?>
<!-- Generator: Adobe Illustrator 27.9.0, SVG Export Plug-In . SVG Version: 6.00 Build 0)  -->
<svg version="1.1" id="Layer_1" xmlns="http://www.w3.org/2000/svg" xmlns:xlink="http://www.w3.org/1999/xlink" x="0px" y="0px"
	 viewBox="0 0 50 32.4" style="enable-background:new 0 0 50 32.4;" xml:space="preserve">
<style type="text/css">
	.st0{fill:none;stroke:#FFFAF0;stroke-width:1.5;stroke-miterlimit:10;}
	.st1{fill:#FFFFFF;stroke:#FFFAF0;stroke-width:1.5;stroke-miterlimit:10;}
</style>
<g>
	<path class="st0" d="M25.9,20l-4-4.8l-3.5-4.2l0,0v0l-8.3-10H13l7.2,9.4l1.9,2.5l2.9,3.7l2.6,3.3l0,0.1"/>
	<polyline class="st0" points="21.9,15.1 15.8,12.2 4.5,6.7 4.5,5.2 7.4,5.2 18.1,10.8 	"/>
	<path class="st1" d="M32.1,20.1L25,16.6l-2.9-3.7l13.3,6.9c0,0-0.1,0-0.1,0L33.8,20h0c0,0-0.1,0-0.1,0"/>
	<path class="st0" d="M27.5,20.1L27.5,20.1c0.8,0,1.6,0.1,2.3,0.1c0.8,0,1.5,0,2.3-0.1c0.5,0,1-0.1,1.5-0.1c0,0,0.1,0,0.1,0h0
		l1.5-0.2c0.1,0,0.1,0,0.1,0c5.8-0.8,9.9-2.7,10.1-4.9c0-0.1,0-0.1,0-0.2c0-3-7-5.5-15.7-5.5c-3.6,0-7,0.4-9.7,1.2l1.9,2.5l2.9,3.7
		L27.5,20.1z"/>
	<path class="st0" d="M21.9,15.1l4,4.8c-6.5-0.6-11.4-2.6-11.7-5.1c0-0.1,0-0.2,0-0.2c0-0.9,0.6-1.7,1.7-2.4L21.9,15.1z"/>
	<path class="st0" d="M45.5,14.7c0,9.3-7,16.9-15.7,16.9S14.2,24,14.2,14.7"/>
</g>
</svg>
